<svg width="181" height="181" viewBox="0 0 181 181" fill="none" xmlns="http://www.w3.org/2000/svg">
<path d="M33.987 73.5312H147.013C148.706 73.5398 150.38 73.1682 151.91 72.4437C153.441 71.7192 154.789 70.6604 155.856 69.3453C156.923 68.0302 157.681 66.4925 158.074 64.8454C158.467 63.1984 158.485 61.4841 158.128 59.829C152.874 34.998 124.438 16.9688 90.5 16.9688C56.5625 16.9688 28.1257 34.998 22.8725 59.829C22.5147 61.4841 22.5331 63.1984 22.9263 64.8454C23.3194 66.4925 24.0773 68.0302 25.144 69.3453C26.2107 70.6604 27.5591 71.7192 29.0896 72.4437C30.6201 73.1682 32.2937 73.5398 33.987 73.5312ZM90.5 28.2812C118.654 28.2812 142.969 42.8532 147.013 62.2188H33.987L33.9375 62.1693C38.0312 42.8532 62.346 28.2812 90.5 28.2812ZM162.094 107.808L133.014 118.414L106.762 107.872C105.414 107.333 103.91 107.333 102.562 107.872L76.4018 118.343L50.1992 107.872C48.9092 107.356 47.4747 107.334 46.1691 107.808L15.0598 119.121C13.7449 119.699 12.6996 120.757 12.1359 122.078C11.5722 123.399 11.5324 124.886 12.0246 126.235C12.5167 127.585 13.504 128.697 14.7859 129.345C16.0679 129.993 17.5485 130.13 18.9272 129.726L28.2812 126.339V130.094C28.2812 137.594 31.2609 144.788 36.5646 150.092C41.8684 155.395 49.0618 158.375 56.5625 158.375H124.438C131.938 158.375 139.132 155.395 144.435 150.092C149.739 144.788 152.719 137.594 152.719 130.094V123.257L165.961 118.442C166.704 118.225 167.394 117.857 167.989 117.363C168.584 116.868 169.071 116.256 169.42 115.566C169.769 114.875 169.973 114.121 170.019 113.348C170.065 112.576 169.952 111.802 169.687 111.076C169.422 110.349 169.01 109.684 168.478 109.122C167.946 108.561 167.304 108.114 166.592 107.811C165.881 107.507 165.114 107.353 164.34 107.357C163.567 107.362 162.802 107.525 162.094 107.836V107.808ZM141.406 130.094C141.406 134.594 139.618 138.91 136.436 142.092C133.254 145.275 128.938 147.062 124.438 147.062H56.5625C52.0621 147.062 47.746 145.275 44.5638 142.092C41.3815 138.91 39.5938 134.594 39.5938 130.094V122.232L47.9862 119.177L74.2383 129.691C75.5863 130.23 77.09 130.23 78.438 129.691L104.598 119.22L130.758 129.691C132.048 130.206 133.483 130.229 134.788 129.754L141.343 127.372L141.406 130.094ZM11.3125 90.5C11.3125 88.9999 11.9084 87.5612 12.9692 86.5004C14.0299 85.4397 15.4686 84.8438 16.9688 84.8438H164.031C165.531 84.8438 166.97 85.4397 168.031 86.5004C169.092 87.5612 169.688 88.9999 169.688 90.5C169.688 92.0001 169.092 93.4388 168.031 94.4996C166.97 95.5603 165.531 96.1562 164.031 96.1562H16.9688C15.4686 96.1562 14.0299 95.5603 12.9692 94.4996C11.9084 93.4388 11.3125 92.0001 11.3125 90.5Z" fill="black"/>
</svg>
